curl
version=1
nRows=148
nColumns=3
inDegrees=yes
endheader
time	r_shoulder_elev	r_elbow_flex
5.4100	36.274274	98.000400
5.4200	36.203685	96.591562
5.4300	36.134277	95.161709
5.4400	36.065798	93.710344
5.4500	35.997982	92.237123
5.4600	35.930553	90.741874
5.4700	35.863228	89.224611
5.4800	35.795717	87.685546
5.4900	35.727727	86.125096
5.5000	35.658965	84.543892
5.5100	35.589135	82.942776
5.5200	35.517941	81.322809
5.5300	35.445091	79.685258
5.5400	35.370290	78.031601
5.5500	35.293246	76.363510
5.5600	35.213665	74.682848
5.5700	35.131253	72.991650
5.5800	35.045712	71.292112
5.5900	34.956741	69.586574
5.6000	34.864032	67.877500
5.6100	34.767274	66.167461
5.6200	34.666143	64.459110
5.6300	34.560309	62.755162
5.6400	34.449433	61.058373
5.6500	34.333164	59.371514
5.6600	34.211146	57.697349
5.6700	34.083011	56.038615
5.6800	33.948390	54.397993
5.6900	33.806910	52.778090
5.7000	33.658198	51.181415
5.7100	33.501889	49.610361
5.7200	33.337627	48.067178
5.7300	33.165072	46.553964
5.7400	32.983907	45.072639
5.7500	32.793845	43.624937
5.7600	32.594634	42.212389
5.7700	32.386063	40.836315
5.7800	32.167971	39.497818
5.7900	31.940253	38.197779
5.8000	31.702864	36.936861
5.8100	31.455829	35.715507
5.8200	31.199241	34.533948
5.8300	30.933272	33.392216
5.8400	30.658169	32.290151
5.8500	30.374262	31.227421
5.8600	30.081961	30.203535
5.8700	29.781756	29.217867
5.8800	29.474219	28.269672
5.8900	29.159994	27.358113
5.9000	28.839801	26.482278
5.9100	28.514427	25.641205
5.9200	28.184719	24.833902
5.9300	27.851584	24.059367
5.9400	27.515973	23.316610
5.9500	27.178882	22.604665
5.9600	26.841337	21.922609
5.9700	26.504390	21.269576
5.9800	26.169107	20.644762
5.9900	25.836558	20.047440
6.0000	25.507811	19.476962
6.0100	25.183921	18.932760
6.0200	24.865916	18.414351
6.0300	24.554794	17.921328
6.0400	24.251511	17.453364
6.0500	23.956971	17.010195
6.0600	23.672019	16.591619
6.0700	23.397432	16.197482
6.0800	23.133912	15.827665
6.0900	22.882081	15.482074
6.1000	22.642471	15.160625
6.1100	22.415523	14.863228
6.1200	22.201583	14.589778
6.1300	22.000896	14.340135
6.1400	21.813607	14.114119
6.1500	21.639760	13.911491
6.1600	21.479297	13.731943
6.1700	21.332064	13.575092
6.1800	21.197808	13.440468
6.1900	21.076190	13.327505
6.2000	20.966779	13.235540
6.2100	20.869071	13.163809
6.2200	20.782484	13.111440
6.2300	20.706375	13.077461
6.2400	20.640043	13.060797
6.2500	20.582743	13.060278
6.2600	20.533690	13.074643
6.2700	20.492071	13.102550
6.2800	20.457055	13.142587
6.2900	20.427804	13.193278
6.3000	20.403478	13.253101
6.3100	20.383249	13.320498
6.3200	20.366307	13.393890
6.3300	20.351871	13.471691
6.3400	20.339194	13.552326
6.3500	20.327571	13.634241
6.3600	20.316349	13.715923
6.3700	20.304928	13.795912
6.3800	20.292771	13.872819
6.3900	20.279404	13.945341
6.4000	20.264422	14.012271
6.4100	20.247494	14.072519
6.4200	20.228359	14.125118
6.4300	20.206833	14.169244
6.4400	20.182807	14.204222
6.4500	20.156247	14.229542
6.4600	20.127193	14.244865
6.4700	20.095756	14.250036
6.4800	20.062119	14.245088
6.4900	20.026531	14.230252
6.5000	19.989304	14.205959
6.5100	19.950813	14.172845
6.5200	19.911486	14.131753
6.5300	19.871803	14.083730
6.5400	19.832289	14.030028
6.5500	19.793510	13.972097
6.5600	19.756068	13.911579
6.5700	19.720593	13.850302
6.5800	19.687738	13.790264
6.5900	19.658172	13.733629
6.6000	19.632576	13.682705
6.6100	19.611634	13.639931
6.6200	19.596029	13.607864
6.6300	19.586437	13.589153
6.6400	19.583516	13.586523
6.6500	19.587911	13.602757
6.6600	19.600237	13.640668
6.6700	19.621082	13.703085
6.6800	19.650999	13.792824
6.6900	19.690506	13.912672
6.7000	19.740076	14.065360
6.7100	19.800140	14.253548
6.7200	19.871081	14.479799
6.7300	19.953234	14.746565
6.7400	20.046883	15.056163
6.7500	20.152263	15.410767
6.7600	20.269555	15.812383
6.7700	20.398891	16.262846
6.7800	20.540348	16.763798
6.7900	20.693957	17.316686
6.8000	20.859698	17.922753
6.8100	21.037502	18.583028
6.8200	21.227254	19.298327
6.8300	21.428795	20.069249
6.8400	21.641924	20.896175
6.8500	21.866396	21.779270
6.8600	22.101929	22.718488
6.8700	22.348204	23.713574
6.8800	22.604866	24.764067
